<mxfile host="app.diagrams.net" modified="2023-05-26T08:53:43.578Z" agent="Mozilla/5.0 (Windows NT 10.0; Win64; x64) AppleWebKit/537.36 (KHTML, like Gecko) Chrome/113.0.0.0 Safari/537.36" etag="jpcM--S2eRh3RyvLbcQR" version="21.3.4" type="github">
  <diagram name="Page-1" id="1d5rxCxylPMhT6lvzg9H">
    <mxGraphModel dx="525" dy="484" grid="1" gridSize="10" guides="1" tooltips="1" connect="1" arrows="1" fold="1" page="1" pageScale="1" pageWidth="850" pageHeight="1100" math="0" shadow="0">
      <root>
        <mxCell id="0" />
        <mxCell id="1" parent="0" />
        <mxCell id="S63PYlEPAI-O4Tzi1c0r-8" value="" style="edgeStyle=orthogonalEdgeStyle;rounded=0;orthogonalLoop=1;jettySize=auto;html=1;" edge="1" parent="1" source="S63PYlEPAI-O4Tzi1c0r-2" target="S63PYlEPAI-O4Tzi1c0r-7">
          <mxGeometry relative="1" as="geometry" />
        </mxCell>
        <mxCell id="S63PYlEPAI-O4Tzi1c0r-2" value="Start" style="ellipse;whiteSpace=wrap;html=1;" vertex="1" parent="1">
          <mxGeometry x="420" y="10" width="120" height="80" as="geometry" />
        </mxCell>
        <mxCell id="S63PYlEPAI-O4Tzi1c0r-10" value="" style="edgeStyle=orthogonalEdgeStyle;rounded=0;orthogonalLoop=1;jettySize=auto;html=1;" edge="1" parent="1" source="S63PYlEPAI-O4Tzi1c0r-7" target="S63PYlEPAI-O4Tzi1c0r-9">
          <mxGeometry relative="1" as="geometry" />
        </mxCell>
        <mxCell id="S63PYlEPAI-O4Tzi1c0r-7" value="Input: int n" style="shape=parallelogram;perimeter=parallelogramPerimeter;whiteSpace=wrap;html=1;fixedSize=1;" vertex="1" parent="1">
          <mxGeometry x="420" y="120" width="120" height="60" as="geometry" />
        </mxCell>
        <mxCell id="S63PYlEPAI-O4Tzi1c0r-12" value="" style="edgeStyle=orthogonalEdgeStyle;rounded=0;orthogonalLoop=1;jettySize=auto;html=1;" edge="1" parent="1" source="S63PYlEPAI-O4Tzi1c0r-9" target="S63PYlEPAI-O4Tzi1c0r-11">
          <mxGeometry relative="1" as="geometry" />
        </mxCell>
        <mxCell id="S63PYlEPAI-O4Tzi1c0r-9" value="initialize int n copy" style="rounded=0;whiteSpace=wrap;html=1;" vertex="1" parent="1">
          <mxGeometry x="430" y="220" width="120" height="60" as="geometry" />
        </mxCell>
        <mxCell id="S63PYlEPAI-O4Tzi1c0r-14" value="" style="edgeStyle=orthogonalEdgeStyle;rounded=0;orthogonalLoop=1;jettySize=auto;html=1;" edge="1" parent="1" source="S63PYlEPAI-O4Tzi1c0r-11" target="S63PYlEPAI-O4Tzi1c0r-13">
          <mxGeometry relative="1" as="geometry" />
        </mxCell>
        <mxCell id="S63PYlEPAI-O4Tzi1c0r-18" value="" style="edgeStyle=orthogonalEdgeStyle;rounded=0;orthogonalLoop=1;jettySize=auto;html=1;" edge="1" parent="1" source="S63PYlEPAI-O4Tzi1c0r-11" target="S63PYlEPAI-O4Tzi1c0r-17">
          <mxGeometry relative="1" as="geometry" />
        </mxCell>
        <mxCell id="S63PYlEPAI-O4Tzi1c0r-11" value="Is &lt;br&gt;nCopy&lt;br&gt;&amp;gt;0" style="rhombus;whiteSpace=wrap;html=1;" vertex="1" parent="1">
          <mxGeometry x="450" y="300" width="80" height="80" as="geometry" />
        </mxCell>
        <mxCell id="S63PYlEPAI-O4Tzi1c0r-16" value="" style="edgeStyle=orthogonalEdgeStyle;rounded=0;orthogonalLoop=1;jettySize=auto;html=1;" edge="1" parent="1" source="S63PYlEPAI-O4Tzi1c0r-13" target="S63PYlEPAI-O4Tzi1c0r-15">
          <mxGeometry relative="1" as="geometry" />
        </mxCell>
        <mxCell id="S63PYlEPAI-O4Tzi1c0r-13" value="Print &#39;-&#39;" style="rounded=0;whiteSpace=wrap;html=1;" vertex="1" parent="1">
          <mxGeometry x="430" y="410" width="120" height="60" as="geometry" />
        </mxCell>
        <mxCell id="S63PYlEPAI-O4Tzi1c0r-15" value="Decrease &lt;br&gt;nCopy by 1" style="rounded=0;whiteSpace=wrap;html=1;" vertex="1" parent="1">
          <mxGeometry x="430" y="520" width="120" height="60" as="geometry" />
        </mxCell>
        <mxCell id="S63PYlEPAI-O4Tzi1c0r-20" value="" style="edgeStyle=orthogonalEdgeStyle;rounded=0;orthogonalLoop=1;jettySize=auto;html=1;" edge="1" parent="1" source="S63PYlEPAI-O4Tzi1c0r-17" target="S63PYlEPAI-O4Tzi1c0r-19">
          <mxGeometry relative="1" as="geometry" />
        </mxCell>
        <mxCell id="S63PYlEPAI-O4Tzi1c0r-17" value="" style="rounded=0;whiteSpace=wrap;html=1;" vertex="1" parent="1">
          <mxGeometry x="570" y="310" width="120" height="60" as="geometry" />
        </mxCell>
        <mxCell id="S63PYlEPAI-O4Tzi1c0r-19" value="End" style="ellipse;whiteSpace=wrap;html=1;" vertex="1" parent="1">
          <mxGeometry x="740" y="300" width="120" height="80" as="geometry" />
        </mxCell>
      </root>
    </mxGraphModel>
  </diagram>
</mxfile>
